<svg xmlns="http://www.w3.org/2000/svg" viewBox="0 0 1440 320">
  <path fill="hsl(0,0%,100%)" fill-opacity="1" d="M0,160L30,144C60,128,120,96,180,106.7C240,117,300,171,360,160C420,149,480,75,540,42.7C600,11,660,21,720,26.7C780,32,840,32,900,37.3C960,43,1020,53,1080,85.3C1140,117,1200,171,1260,165.3C1320,160,1380,96,1410,64L1440,32L1440,0L1410,0C1380,0,1320,0,1260,0C1200,0,1140,0,1080,0C1020,0,960,0,900,0C840,0,780,0,720,0C660,0,600,0,540,0C480,0,420,0,360,0C300,0,240,0,180,0C120,0,60,0,30,0L0,0Z"></path>
</svg>
