<svg xmlns="http://www.w3.org/2000/svg" viewBox="0 0 1440 320">
  <path fill="hsl(0,0%,100%)" fill-opacity="1" d="M0,32L30,64C60,96,120,160,180,165.3C240,171,300,117,360,96C420,75,480,85,540,85.3C600,85,660,75,720,101.3C780,128,840,192,900,197.3C960,203,1020,149,1080,133.3C1140,117,1200,139,1260,133.3C1320,128,1380,96,1410,80L1440,64L1440,0L1410,0C1380,0,1320,0,1260,0C1200,0,1140,0,1080,0C1020,0,960,0,900,0C840,0,780,0,720,0C660,0,600,0,540,0C480,0,420,0,360,0C300,0,240,0,180,0C120,0,60,0,30,0L0,0Z"></path></svg>
