<svg xmlns="http://www.w3.org/2000/svg" viewBox="0 0 1440 320">
  <path fill="hsl(0,0%,100%)" fill-opacity="1" d="M0,0L30,16C60,32,120,64,180,96C240,128,300,160,360,160C420,160,480,128,540,101.3C600,75,660,53,720,48C780,43,840,53,900,48C960,43,1020,21,1080,10.7C1140,0,1200,0,1260,10.7C1320,21,1380,43,1410,53.3L1440,64L1440,0L1410,0C1380,0,1320,0,1260,0C1200,0,1140,0,1080,0C1020,0,960,0,900,0C840,0,780,0,720,0C660,0,600,0,540,0C480,0,420,0,360,0C300,0,240,0,180,0C120,0,60,0,30,0L0,0Z"></path>
</svg>
