<svg xmlns="http://www.w3.org/2000/svg" viewBox="0 0 1440 320">
  <path fill="hsl(0,0%,100%)" fill-opacity="1" d="M0,32L30,37.3C60,43,120,53,180,80C240,107,300,149,360,149.3C420,149,480,107,540,106.7C600,107,660,149,720,154.7C780,160,840,128,900,96C960,64,1020,32,1080,37.3C1140,43,1200,85,1260,117.3C1320,149,1380,171,1410,181.3L1440,192L1440,0L1410,0C1380,0,1320,0,1260,0C1200,0,1140,0,1080,0C1020,0,960,0,900,0C840,0,780,0,720,0C660,0,600,0,540,0C480,0,420,0,360,0C300,0,240,0,180,0C120,0,60,0,30,0L0,0Z"></path>
</svg>
