<svg xmlns="http://www.w3.org/2000/svg" viewBox="0 0 1440 320">
  <path fill="hsl(0,0%,100%)" fill-opacity="1" d="M0,96L30,80C60,64,120,32,180,21.3C240,11,300,21,360,26.7C420,32,480,32,540,53.3C600,75,660,117,720,149.3C780,181,840,203,900,186.7C960,171,1020,117,1080,96C1140,75,1200,85,1260,112C1320,139,1380,181,1410,202.7L1440,224L1440,0L1410,0C1380,0,1320,0,1260,0C1200,0,1140,0,1080,0C1020,0,960,0,900,0C840,0,780,0,720,0C660,0,600,0,540,0C480,0,420,0,360,0C300,0,240,0,180,0C120,0,60,0,30,0L0,0Z"></path>
</svg>
